<svg width="183" height="28" fill="none" xmlns="http://www.w3.org/2000/svg"><path d="M19.62.304c5.4 0 8.82 4.212 8.82 7.092s-2.376 5.076-4.644 5.076c-1.512 0-3.528-1.08-3.528-3.24 0-2.124 1.548-2.844 1.872-2.844.36 0 1.044.9 1.836.9.828 0 1.62-.36 1.62-1.188s-2.484-2.232-4.608-2.232c-8.172 0-17.748 8.928-17.748 14.94 0 2.808 5.796 4.212 10.26 4.212 8.676 0 14.112-2.808 16.812-6.3 0 0 .324.36.324.936 0 2.916-8.496 9.864-18.576 9.864C4.32 27.52.252 21.76.252 16.972.252 6.496 13.032.304 19.62.304zm13.471 6.552c1.188 0 3.132.864 3.132 1.836 0 1.62-1.944 3.168-3.492 3.168-.972 0-2.376-.54-2.376-2.016 0-1.512 1.476-2.988 2.736-2.988zm-1.98 6.264c1.296 0 3.096 1.476 3.096 2.304 0 .36-.432.792-.612 1.188-.54 1.044-1.188 3.276-1.188 5.364 0 .612.324 1.08.648 1.08 1.08 0 3.276-2.304 4.716-5.22 0 0 .612.504.612 1.296 0 .828-2.988 6.156-5.508 6.156-1.692 0-3.708-.972-3.708-3.096 0-4.536 1.296-9.072 1.944-9.072zm10.14 2.34c0 .648-.612 2.88-.9 4.284l.18.036c1.512-2.808 3.852-6.66 4.68-6.66 1.296 0 2.88 1.476 2.88 2.304 0 .828-1.728 4.716-1.728 6.552 0 .612.324 1.08.648 1.08 1.08 0 3.24-2.304 4.716-5.22 0 0 .612.504.612 1.296 0 .828-3.024 6.156-5.508 6.156-1.692 0-3.924-1.224-3.924-2.664 0-1.836 2.016-6.552 2.016-6.552l-.18-.108c-3.708 5.292-4.392 9.324-5.58 9.324-1.224 0-2.484-1.584-2.484-3.024 0-1.476 1.332-5.544 1.332-6.768 0-1.224-.432-1.332-.432-1.872 0-.288.324-.504.756-.504.72 0 2.916 1.188 2.916 2.34zM57.412 5.308c1.908 0 3.24 1.296 3.24 1.836 0 1.98-4.14 4.644-5.292 4.644-.252 0-.396-.18-.396-.396 0-.324 1.908-2.052 1.908-4.824 0-.36-.036-.648-.036-.828 0-.288.072-.432.576-.432zm-2.52 19.98c-2.664 0-4.824-1.692-4.824-5.112 0-3.204 2.88-7.056 5.076-7.056 2.124 0 4.392 1.764 4.392 3.348 0 2.52-2.88 4.536-5.112 4.536-.396 0-.828-.072-1.224-.144.216 1.08.936 2.232 2.196 2.232 1.944 0 4.896-2.34 6.336-5.256 0 0 .612.504.612 1.296 0 .828-3.348 6.156-7.452 6.156zm1.224-10.044c-.864 0-2.34 2.34-2.844 4.032.252.072.504.072.756.072 1.368 0 2.7-2.16 2.7-3.24 0-.54-.288-.864-.612-.864zm31.507-1.872c.252 0 .36.144.36.432 0 .396-1.044 1.404-1.908 1.728-1.044.432-4.932 1.404-8.388 2.16-.216 2.844-.468 5.508-.72 7.272-.216 1.368-.612 2.556-1.296 2.556-1.296 0-4.284-1.332-4.284-2.772 0-.324.432-.108.648-1.008.216-.972.684-2.808 1.116-5.22-.36.036-.684.072-.9.072-1.908 0-3.06-2.988-3.06-3.636 0-.216.324-.54.504-.54.36 0 .828.54 2.016.54h2.052c.468-2.88.864-6.156 1.044-9.54l-.756.072c-.468.036-.864.072-1.224.072-1.98 0-2.232-.864-2.232-1.08 0-1.944 2.952-4.14 5.04-4.14.432 0 1.728.576 2.448 1.728C81.863 1.24 88.883.34 90.575.34c2.16 0 3.96 3.42 3.96 4.608 0 .54-.54 2.052-.72 2.772-.792 2.88-1.692 7.056-1.692 10.188 0 2.556.648 4.716 1.98 4.716 1.044 0 2.7-1.872 4.14-4.788 0 0 .612.504.612 1.296 0 .828-2.988 6.156-5.508 6.156-2.736 0-4.644-3.132-4.644-6.084 0-1.512.576-9.792 1.944-14.328a62.932 62.932 0 00-4.068-.144c-2.196 0-4.824.108-8.064.36-.108 2.016-.288 5.76-.576 9.648 5.616-.468 8.928-1.368 9.684-1.368zm19.389 2.988c0 .18-.072.36-.18.54.684.144 1.476.612 1.476 1.188 0 .396-1.044 2.412-1.044 4.032 0 .612.108.828.324.828.576 0 2.772-2.196 4.248-5.112 0 0 .612.504.612 1.296 0 .828-2.988 6.156-5.508 6.156-1.764 0-2.376-1.548-2.592-2.88-.792 1.296-2.052 2.88-3.42 2.88-2.304 0-3.996-2.232-3.996-4.608 0-3.636 3.636-7.56 5.904-7.56 1.908 0 4.176 2.412 4.176 3.24zm-3.564.756c0-.108.468-.396.468-.828 0-.216-.324-.72-.684-.72-.72 0-3.276 3.42-3.276 6.048 0 .72.144 1.332.612 1.332 1.188 0 3.276-3.204 3.852-4.788-.612-.18-.972-.648-.972-1.044zm13.965-4.14c2.052 0 2.88 1.476 2.88 2.88 0 1.08-.684 1.656-1.224 1.656-.18 0-.288-.108-.288-.36 0-.324-.432-.612-.972-.612s-3.42.864-3.42 2.412c0 .864 5.112 1.656 5.112 3.492 0 1.512-1.908 2.844-4.536 2.844-2.844 0-4.032-1.116-4.032-2.124 0-1.296 1.476-1.728 1.8-1.728.36 0 .396.216.396.36 0 .864.792 1.332 1.944 1.332.648 0 1.368-.144 1.368-.792 0-1.008-5.76-1.692-5.76-4.176 0-2.808 4.896-5.184 6.732-5.184zm6.853 7.92l.144.072c1.044-1.944 4.212-7.848 4.896-7.848 1.296 0 3.276 1.476 3.276 2.304 0 .828-1.728 4.716-1.728 6.552 0 .612.324 1.08.648 1.08 1.08 0 3.24-2.304 4.716-5.22 0 0 .612.504.612 1.296 0 .828-3.024 6.156-5.508 6.156-1.728 0-3.924-1.116-3.924-2.988 0-2.376 2.016-6.228 2.016-6.228l-.18-.108c-3.708 5.292-4.392 9.324-5.58 9.324-1.26 0-2.664-1.98-2.664-3.06 0-1.476 1.944-13.536 3.42-17.712.324-.864.576-1.764 1.296-1.764 1.368 0 3.24 1.692 3.24 2.52 0 .288-.36.504-.972 2.16-1.512 4.068-3.168 10.08-3.708 13.464zm38.34-12.132c0 2.844-5.004 8.46-9.576 12.564v.18c2.196-.252 5.076-.54 6.84-.54.972 0 1.872 2.628 1.872 4.032 0 .36-.36.684-.792.684-.504 0-4.5-.9-9.036-.9-1.08 0-2.196.036-3.276.18-1.584.936-2.988 1.512-4.032 1.512-.612 0-1.116-1.548-1.116-3.024 0-.396 1.188-.792 2.988-1.188 5.184-2.988 14.04-9.36 14.04-14.04 0-1.692-1.404-2.34-3.564-2.34-.756 0-6.048.468-8.136 4.86-.252.54-.108.9-.396.9-.72 0-2.016-2.016-2.016-3.708 0-3.42 4.896-5.94 8.496-5.94 5.22 0 7.704 2.484 7.704 6.768zm11.319 5.364c-2.376 0-3.708.828-4.32.828-1.44 0-2.592-1.944-2.592-2.448 0-.468 1.908-6.984 2.16-7.416.108-.18.18-.288.288-.396-.36-.36-.576-.684-.576-.864 0-1.188 5.58-2.232 11.376-2.232.972 0 2.7 2.772 2.7 4.176 0 .36-.072.468-.216.468-.684 0-.9-.504-4.716-.504-1.548 0-3.276.036-5.544.432-.54 1.152-1.332 3.42-1.836 5.544 1.692-.54 2.988-.864 4.5-.864 3.78 0 6.948 1.368 6.948 6.804 0 4.068-3.348 7.956-9.072 7.956-5.256 0-8.244-2.844-8.244-6.336 0-1.188.468-2.124 1.08-2.124.288 0 .684 3.924 6.588 3.924 4.032 0 7.308-1.476 7.308-3.276 0-2.016-2.628-3.672-5.832-3.672z" fill="#fff"/></svg>